<svg xmlns="http://www.w3.org/2000/svg" width="360" height="380" viewBox="0 0 360 380">
<defs><linearGradient id="shell" x1="0" y1="0" x2=".8" y2="1"><stop stop-color="#fff"/><stop offset=".32" stop-color="#c9c4c7"/><stop offset=".65" stop-color="#80757c"/><stop offset="1" stop-color="#352126"/></linearGradient><linearGradient id="body" x2=".8" y2="1"><stop stop-color="#e8e4e5"/><stop offset=".5" stop-color="#a89b9e"/><stop offset="1" stop-color="#633038"/></linearGradient><linearGradient id="glass" x2=".4" y2="1"><stop stop-color="#29252c"/><stop offset=".45" stop-color="#0a0a10"/><stop offset="1" stop-color="#1a0c13"/></linearGradient><radialGradient id="red"><stop stop-color="#ff3d44" stop-opacity=".8"/><stop offset="1" stop-color="#ff273a" stop-opacity="0"/></radialGradient><filter id="glow"><feGaussianBlur stdDeviation="3"/></filter></defs>
<ellipse cx="186" cy="337" rx="69" ry="19" fill="url(#red)"/>
<g transform="rotate(-7 180 190)"><path d="m93 208-24 9c-26 14-40 44-22 57 14 11 27-6 39-21l25-14" fill="url(#shell)" stroke="#b09a9d" stroke-width="2"/><path d="m266 215 28 16c23 16 34 39 18 51-17 12-26-11-40-23l-21-10" fill="url(#shell)" stroke="#8a737a" stroke-width="2"/>
<path d="M106 211c-15 22-17 62 0 93 14 26 40 40 76 39 38-1 64-19 77-49 12-29 12-60-5-80Z" fill="url(#body)" stroke="#b59498" stroke-width="2"/><path d="M177 256v69m-65-61 20 11v34m109-41-17 9v30" fill="none" stroke="#4a363e" stroke-opacity=".5"/><ellipse cx="179" cy="294" rx="27" ry="28" fill="#231c23" stroke="#b3999c" stroke-width="4"/><path d="m164 305 6-23 9 14 9-14 6 23-15-7Z" fill="none" stroke="#ff424b" stroke-width="3" stroke-linejoin="round"/>
<path d="m114 109-6-37m139 40 9-33" stroke="#c4b4ba" stroke-width="3"/><circle cx="108" cy="72" r="4" fill="#ff6970"/><circle cx="256" cy="79" r="4" fill="#ff6970"/>
<ellipse cx="92" cy="175" rx="19" ry="37" fill="url(#shell)" stroke="#cfb9bd" stroke-width="3"/><ellipse cx="272" cy="180" rx="20" ry="37" fill="url(#shell)" stroke="#cfb9bd" stroke-width="3"/><ellipse cx="278" cy="180" rx="12" ry="27" fill="#35232d" stroke="#bb6571" stroke-width="3"/>
<path d="M91 170c0-54 36-90 91-90 57 0 93 37 93 91v20c0 44-35 70-93 70-59 0-92-25-92-70Z" fill="url(#shell)" stroke="#d4bfc4" stroke-width="2"/>
<path d="M110 165c3-33 31-54 71-54 43 0 70 23 73 57l-1 26c-2 31-28 49-72 49-45 0-69-18-72-48Z" fill="url(#glass)" stroke="#706069" stroke-width="3"/>
<path d="M126 146c13-19 35-25 57-25" fill="none" stroke="#fff" stroke-opacity=".15" stroke-width="5" stroke-linecap="round"/>
<g fill="none" stroke="#ff4d59" stroke-width="6" stroke-linecap="round"><path d="M135 192q11-18 22 0m45 0q11-18 22 0" filter="url(#glow)"/><path d="M135 192q11-18 22 0m45 0q11-18 22 0"/></g><path d="M169 213q11 7 21 0" stroke="#ef5c65" stroke-width="2.5" fill="none" stroke-linecap="round"/>
<path d="M120 243q60 25 120 0" fill="none" stroke="#fc4b56" stroke-width="2"/><ellipse cx="184" cy="329" rx="54" ry="17" fill="url(#red)"/>
</g></svg>
